<svg width="16" height="16" viewBox="0 0 16 16" fill="none" xmlns="http://www.w3.org/2000/svg">
<path d="M8 16C3.5816 16 0 12.4184 0 8C0 3.5816 3.5816 0 8 0C12.4184 0 16 3.5816 16 8C16 12.4184 12.4184 16 8 16ZM8 14.4C9.69739 14.4 11.3253 13.7257 12.5255 12.5255C13.7257 11.3253 14.4 9.69739 14.4 8C14.4 6.30261 13.7257 4.67475 12.5255 3.47452C11.3253 2.27428 9.69739 1.6 8 1.6C6.30261 1.6 4.67475 2.27428 3.47452 3.47452C2.27428 4.67475 1.6 6.30261 1.6 8C1.6 9.69739 2.27428 11.3253 3.47452 12.5255C4.67475 13.7257 6.30261 14.4 8 14.4ZM4 10.656C5.72404 10.5321 7.34535 9.7898 8.5656 8.5656C9.7898 7.34535 10.5321 5.72404 10.656 4C11.2471 4.39382 11.7435 4.91392 12.1092 5.52279C12.475 6.13166 12.7011 6.81412 12.7712 7.52094C12.8413 8.22777 12.7537 8.94134 12.5146 9.61019C12.2755 10.279 11.891 10.8865 11.3888 11.3888C10.8865 11.891 10.279 12.2755 9.61019 12.5146C8.94134 12.7537 8.22777 12.8413 7.52094 12.7712C6.81412 12.7011 6.13166 12.475 5.52279 12.1092C4.91392 11.7435 4.39382 11.2471 4 10.656Z" fill="#041821"/>
</svg>
